# xmcd
#
# Track frame offsets:
#	150
#	17257
#	26620
#	41575
#	52430
#	68652
#	82245
#	92115
#	109047
#	119467
#	131672
#	153725
#	165385
#	183952
#	198572
#	217440
#	229150
#	248287
#	259672
#	272347
#	283455
#	295837
#	308592
#
# Disc length: 4324 seconds
#
# Revision: 0
# Processed by: cddbd v1.5PL3 Copyright (c) Steve Scherf et al.
# Submitted via: dBpowerAMP V4.0
#
DISCID=5210e217
DTITLE=Various Artist - Classic Country ... Australia Style
DYEAR=1900
DGENRE=Country
TTITLE0=Deniese Morrison - Tar and Cement
TTITLE1=Lee Conway - Truck Driving Man
TTITLE2=Cash Backman - Jenny
TTITLE3=Johnny Chester - A Lonely Man Like Me
TTITLE4=Tex Williams - Do What You Do, Do Well
TTITLE5=Nev Nicholls - Lights On The Hill
TTITLE6=Judy Stone - Everybody's Reaching Out For Someone
TTITLE7=Johnny Chester - Gotta Get Back To Tamworth
TTITLE8=Tex Williams - Singing The Blues
TTITLE9=Reg Lindsay - You're The One
TTITLE10=Bluestone - The Closer You Get
TTITLE11=Tex Williams - A Fool Such As I
TTITLE12=Lee Conway - Never Be Anyone Else But You
TTITLE13=Deniese Morrison - No Charge
TTITLE14=Reg Lindsay - Coward Of The County
TTITLE15=Bernie O'Brien - That's All You Ever Got
TTITLE16=Bill and Boyd - Santa Never Made It Into Darwin
TTITLE17=Judy Stone - Take Me Home, Country Road
TTITLE18=Ian Betteridge - Rodeo Queen
TTITLE19=Nev Nicholls - Six Days On The Road
TTITLE20=Tex Williams - Please Release Me
TTITLE21=Bluestone - Wind and Rain
TTITLE22=Cash Backman - My Girl Bill
EXTD=
EXTT0=
EXTT1=
EXTT2=
EXTT3=
EXTT4=
EXTT5=
EXTT6=
EXTT7=
EXTT8=
EXTT9=
EXTT10=
EXTT11=
EXTT12=
EXTT13=
EXTT14=
EXTT15=
EXTT16=
EXTT17=
EXTT18=
EXTT19=
EXTT20=
EXTT21=
EXTT22=
PLAYORDER=
